#!OML:ASF F:\VICON\USERDATA\INSTALL\Justin_Nancy\Justin_Nancy.ASF
:FULLY-SPECIFIED
:DEGREES
99
root -5.35644 17.164 10.9386 0.397809 -44.327 5.11497
lowerback 10.7006 1.3246 3.57982
upperback -0.873599 2.36397 2.22512
thorax -6.88785 1.05821 -0.0584838
lowerneck -17.2063 -6.78676 -12.5262
upperneck 18.8864 -7.2829 5.44999
head 9.48327 -3.7372 2.93964
rclavicle -3.08116e-014 3.18055e-015
rhumerus -41.9925 11.4956 -92.8871
rradius 116.034
rwrist -12.4238
rhand -14.3022 26.832
rfingers 7.12502
rthumb 11.8377 -2.81338
lclavicle -3.08116e-014 3.18055e-015
lhumerus -57.7433 -0.859111 91.2201
lradius 106.884
lwrist 26.5877
lhand -10.7766 11.4259
lfingers 7.12502
lthumb 15.2357 40.8448
rfemur 3.31672 -3.04976 31.6338
rtibia 33.2514
rfoot -6.35507 -8.25831
rtoes -6.83379
lfemur -37.326 1.28785 -15.1003
ltibia 66.1713
lfoot -5.00753 2.37358
ltoes -17.5439
100
root -5.65478 17.2464 11.2641 0.80137 -43.9896 4.82227
lowerback 9.87567 1.34129 3.96488
upperback -0.930172 2.38379 2.1098
thorax -6.45813 1.06018 -0.37683
lowerneck -16.9959 -6.80513 -12.3686
upperneck 18.9163 -7.36893 5.389
head 9.4546 -3.77716 2.88534
rclavicle 1.42131e-013 -2.70347e-014
rhumerus -41.8816 11.631 -92.9201
rradius 116.18
rwrist -12.2556
rhand -13.7287 26.86
rfingers 7.12502
rthumb 12.3907 -2.75277
lclavicle 1.42131e-013 -2.70347e-014
lhumerus -57.9944 -0.755285 91.1069
lradius 107.092
lwrist 26.3332
lhand -10.493 11.6283
lfingers 7.12502
lthumb 15.5088 41.0264
rfemur 4.73404 -2.66803 31.4942
rtibia 32.1554
rfoot -2.91275 -7.15059
rtoes -4.68537
lfemur -37.6911 0.393571 -15.3421
ltibia 62.1684
lfoot -5.01977 3.18496
ltoes -15.9922
101
root -5.96425 17.3304 11.6005 1.30468 -43.9565 4.12226
lowerback 9.07204 1.46392 4.68409
upperback -0.853148 2.5719 2.05956
thorax -5.88166 1.14028 -0.833136
lowerneck -17.0398 -6.91213 -12.2407
upperneck 19.0126 -7.53451 5.31916
head 9.50374 -3.8529 2.81487
rclavicle -9.93923e-015 -6.36111e-014
rhumerus -41.6746 11.7733 -92.9248
rradius 116.226
rwrist -11.9578
rhand -13.4859 26.7494
rfingers 7.12502
rthumb 12.6248 -2.84911
lclavicle -9.93923e-015 -6.36111e-014
lhumerus -58.1229 -0.815854 91.0455
lradius 107.284
lwrist 26.4776
lhand -0.897065 15.7722
lfingers 7.12502
lthumb 24.7309 44.1937
rfemur 6.32686 -1.93451 31.637
rtibia 31.0824
rfoot 0.217548 -5.53956
rtoes -0.926981
lfemur -37.6872 -0.0884448 -15.351
ltibia 58.1197
lfoot -5.1068 3.47213
ltoes -20.3507
102
root -6.27944 17.3997 11.9186 1.74129 -43.8332 3.33286
lowerback 8.63181 1.59371 5.29448
upperback -0.873657 2.77813 2.03241
thorax -5.61562 1.22807 -1.21417
lowerneck -17.0919 -7.04846 -12.1967
upperneck 19.2896 -7.76458 5.41352
head 9.63427 -3.94961 2.80538
rclavicle -9.23355e-014 2.22639e-014
rhumerus -41.9016 11.8159 -92.9867
rradius 116.42
rwrist -11.7417
rhand -13.4919 26.5937
rfingers 7.12502
rthumb 12.619 -3.00514
lclavicle -9.23355e-014 2.22639e-014
lhumerus -58.4291 -0.986448 90.9078
lradius 107.455
lwrist 26.6167
lhand -10.7791 10.4869
lfingers 7.12502
lthumb 15.2333 39.906
rfemur 7.9846 -1.19711 32.0085
rtibia 29.8987
rfoot 4.26888 -4.87262
rtoes 0.904948
lfemur -37.4487 -0.457405 -15.2905
ltibia 54.0977
lfoot -5.12918 3.45717
ltoes -24.0598
103
root -6.59149 17.4617 12.2214 2.0153 -43.3158 3.1308
lowerback 8.24598 1.50243 5.26272
upperback -1.09664 2.63557 1.97812
thorax -5.63889 1.15546 -1.22561
lowerneck -16.8377 -7.09499 -12.1906
upperneck 19.1861 -7.91301 5.63139
head 9.57431 -3.99835 2.86495
rclavicle 2.83268e-014 -1.59028e-015
rhumerus -42.3796 12.1496 -93.1658
rradius 116.6
rwrist -11.5213
rhand -13.563 26.8295
rfingers 7.12502
rthumb 12.5504 -2.77356
lclavicle 2.83268e-014 -1.59028e-015
lhumerus -58.8546 -0.854092 90.6059
lradius 107.666
lwrist 26.7181
lhand -9.64177 11.2115
lfingers 7.12502
lthumb 16.3286 40.5441
rfemur 9.16784 -0.812296 32.0784
rtibia 28.7026
rfoot 9.54241 -4.82886
rtoes -1.65529
lfemur -37.3627 -1.33373 -15.5629
ltibia 50.0817
lfoot -4.99626 3.56249
ltoes -23.4889
104
root -6.90629 17.5456 12.5281 2.33635 -42.8002 2.85353
lowerback 7.95476 1.36192 5.2147
upperback -1.38586 2.4426 2.06439
thorax -5.79569 1.05594 -1.07978
lowerneck -16.3538 -7.06106 -12.3697
upperneck 18.9984 -7.92375 5.83248
head 9.43842 -4.00289 2.97413
rclavicle 4.59193e-014 -6.36111e-015
rhumerus -42.9513 12.7543 -93.1461
rradius 116.74
rwrist -11.3587
rhand -13.637 27.0627
rfingers 7.12502
rthumb 12.4791 -2.54474
lclavicle 4.59193e-014 -6.36111e-015
lhumerus -59.4238 -0.566684 90.5297
lradius 108.001
lwrist 27.0865
lhand -9.14887 11.5191
lfingers 7.12502
lthumb 16.8031 40.8121
rfemur 10.1557 -0.227568 32.2539
rtibia 27.8262
rfoot 13.8785 -4.42548
rtoes -4.0199
lfemur -37.081 -2.14813 -15.9123
ltibia 46.0277
lfoot -4.40152 3.3695
ltoes -27.2788
105
root -7.22622 17.6375 12.8303 2.66235 -42.6121 2.60995
lowerback 7.65031 1.42052 5.04404
upperback -1.64131 2.50241 2.19953
thorax -5.9019 1.08779 -0.844858
lowerneck -15.9831 -7.05154 -12.7019
upperneck 18.918 -7.93105 6.08475
head 9.37003 -4.0108 3.12311
rclavicle -3.38928e-014 -3.18055e-014
rhumerus -43.4166 13.1967 -92.9292
rradius 116.83
rwrist -11.1861
rhand -13.6179 27.0707
rfingers 7.12502
rthumb 12.4975 -2.5356
lclavicle -3.38928e-014 -3.18055e-014
lhumerus -60.0053 -0.426996 90.7343
lradius 108.437
lwrist 27.3827
lhand -9.48819 11.39
lfingers 7.12502
lthumb 16.4765 40.7104
rfemur 10.8037 1.0701 32.5304
rtibia 27.731
rfoot 16.7597 -4.17164
rtoes 3.3104
lfemur -36.5782 -2.01467 -16.5209
ltibia 41.6559
lfoot -3.55081 2.33088
ltoes -32.062
